<svg width="120" height="120" viewBox="0 0 120 120" fill="none" xmlns="http://www.w3.org/2000/svg">
<path d="M108.316 3H11.6836C9.38174 3.00283 7.17494 3.91835 5.54712 5.54582C3.91929 7.17329 3.0033 9.37986 3 11.6817L3 79.9996C3.00259 82.3018 3.9183 84.5089 5.54623 86.1368C7.17416 87.7647 9.38136 88.6804 11.6836 88.683H38.4861V101.136H32.697C30.867 101.138 29.1126 101.866 27.8186 103.16C26.5247 104.453 25.7968 106.208 25.7947 108.038V115.441C25.7947 115.646 25.835 115.849 25.9133 116.038C25.9916 116.227 26.1064 116.399 26.2512 116.544C26.3959 116.688 26.5677 116.803 26.7568 116.881C26.9459 116.96 27.1486 117 27.3532 117H92.6467C93.0601 117 93.4566 116.836 93.7488 116.544C94.0411 116.251 94.2053 115.855 94.2053 115.441V108.038C94.2032 106.208 93.4753 104.453 92.1814 103.16C90.8874 101.866 89.133 101.138 87.303 101.136H81.5139V88.683H108.316C110.619 88.6804 112.826 87.7647 114.454 86.1368C116.082 84.5089 116.997 82.3018 117 79.9996V11.6817C116.997 9.37986 116.081 7.17329 114.453 5.54582C112.825 3.91835 110.618 3.00283 108.316 3V3ZM91.0882 108.038V113.881H28.9118V108.036C28.913 107.032 29.3122 106.07 30.0218 105.361C30.7314 104.651 31.6935 104.252 32.697 104.251H87.303C88.3068 104.252 89.2692 104.651 89.9788 105.361C90.6885 106.071 91.0874 107.034 91.0882 108.038ZM78.3967 101.136H41.6033V88.683H78.3967V101.136ZM113.883 79.9996C113.881 81.4753 113.294 82.8902 112.251 83.9337C111.207 84.9773 109.792 85.5642 108.316 85.5659H11.6836C10.2078 85.5642 8.79292 84.9773 7.74937 83.9337C6.70583 82.8902 6.11884 81.4753 6.11719 79.9996V11.6817C6.11931 10.2062 6.70651 8.79181 7.75 7.74867C8.7935 6.70552 10.2081 6.11879 11.6836 6.11714H108.316C109.792 6.11879 111.207 6.70577 112.251 7.7493C113.294 8.79283 113.881 10.2077 113.883 11.6835V79.9996ZM36.2319 79.9996C36.2317 80.4129 36.0674 80.8091 35.7751 81.1014C35.4829 81.3936 35.0866 81.5579 34.6733 81.5581H29.8497C29.4363 81.5581 29.0399 81.3939 28.7476 81.1016C28.4553 80.8093 28.2911 80.4129 28.2911 79.9996C28.2911 79.5862 28.4553 79.1898 28.7476 78.8975C29.0399 78.6052 29.4363 78.441 29.8497 78.441H34.6733C35.0867 78.441 35.4831 78.6052 35.7754 78.8975C36.0677 79.1898 36.2319 79.5862 36.2319 79.9996V79.9996ZM109.875 11.6817V79.9996C109.875 80.4129 109.71 80.8091 109.418 81.1014C109.126 81.3936 108.73 81.5579 108.316 81.5581H46.2149C45.8015 81.5581 45.4051 81.3939 45.1128 81.1016C44.8205 80.8093 44.6563 80.4129 44.6563 79.9996C44.6563 79.5862 44.8205 79.1898 45.1128 78.8975C45.4051 78.6052 45.8015 78.441 46.2149 78.441H106.758V13.242H13.2422V78.441H18.3081C18.7214 78.441 19.1179 78.6052 19.4102 78.8975C19.7024 79.1898 19.8667 79.5862 19.8667 79.9996C19.8667 80.4129 19.7024 80.8093 19.4102 81.1016C19.1179 81.3939 18.7214 81.5581 18.3081 81.5581H11.6836C11.2703 81.5579 10.874 81.3936 10.5818 81.1014C10.2895 80.8091 10.1252 80.4129 10.125 79.9996V11.6817C10.1257 11.2687 10.2902 10.8729 10.5824 10.581C10.8746 10.2892 11.2706 10.1251 11.6836 10.1249H108.316C108.729 10.1251 109.125 10.2892 109.418 10.581C109.71 10.8729 109.874 11.2687 109.875 11.6817V11.6817ZM48.4343 28.247L70.4533 22.4581C70.853 22.353 71.1947 22.0933 71.4031 21.7363C71.6114 21.3793 71.6694 20.9542 71.5643 20.5544C71.4592 20.1546 71.1996 19.813 70.8426 19.6046C70.4856 19.3962 70.0604 19.3382 69.6606 19.4434L45.97 25.6723H45.9611H45.9486C45.8385 25.7017 45.7319 25.7429 45.6307 25.7952C45.603 25.8094 45.579 25.8308 45.5523 25.8468C45.4769 25.8898 45.4054 25.9393 45.3385 25.9947C45.3284 26.0007 45.3186 26.0072 45.3091 26.0143L35.8525 34.427C35.8382 34.4395 35.8284 34.4564 35.8151 34.4697C35.7753 34.5101 35.7379 34.5526 35.7029 34.5971C35.6548 34.6531 35.611 34.7126 35.5719 34.7752C35.5427 34.8228 35.5165 34.8722 35.4936 34.9231C35.4618 34.988 35.4345 35.0549 35.4116 35.1235C35.3944 35.1772 35.3805 35.2319 35.3698 35.2873C35.3553 35.359 35.3458 35.4316 35.3413 35.5046C35.3413 35.5358 35.3297 35.5652 35.3297 35.5937V53.6214C35.3297 53.9007 35.4048 54.1749 35.547 54.4152C35.6893 54.6556 35.8935 54.8533 36.1384 54.9876L52.3852 63.9009C52.4468 63.9297 52.5101 63.9547 52.5749 63.9757C52.6173 63.9948 52.6607 64.0118 52.7049 64.0265C52.8444 64.0689 52.9892 64.0914 53.1351 64.0933C53.2956 64.0907 53.4549 64.0634 53.6071 64.0122C53.6231 64.0069 53.64 64.0122 53.6561 64.0033L78.8162 55.0901C79.1198 54.9825 79.3825 54.7836 79.5683 54.5206C79.7541 54.2576 79.8539 53.9435 79.8538 53.6214V35.5964C79.8538 35.5777 79.8476 35.5599 79.8467 35.5411C79.8437 35.4703 79.8354 35.3997 79.8217 35.3301C79.8137 35.282 79.8075 35.2348 79.795 35.1885C79.7745 35.1201 79.7495 35.0532 79.7202 34.9881C79.7037 34.9438 79.685 34.9004 79.6641 34.8581C79.6641 34.85 79.6579 34.8402 79.6534 34.8322L75.9555 28.2613C75.7528 27.9011 75.4152 27.6362 75.0171 27.5249C74.619 27.4135 74.193 27.4649 73.8327 27.6677C73.4725 27.8705 73.2076 28.2081 73.0963 28.6061C72.985 29.0042 73.0364 29.4303 73.2391 29.7905L76.0312 34.7423L64.7586 38.734L54.0328 42.5324L48.4343 28.247ZM45.709 29.8359L48.1591 36.0826L50.1132 41.0701L45.1631 38.3573L39.5753 35.2918L45.709 29.8359ZM38.4469 38.2246L38.8192 38.4285L51.5765 45.4278V59.902L38.4469 52.6961V38.2246ZM76.7366 52.518L54.6937 60.3286V45.6068L76.7366 37.798V52.518ZM87.0955 51.1821V37.5557C86.8059 37.829 86.4225 37.9806 86.0244 37.9793C85.6263 37.9781 85.2439 37.824 84.9561 37.5489C84.6683 37.2738 84.4971 36.8987 84.4779 36.501C84.4587 36.1034 84.593 35.7136 84.8529 35.412L87.4695 32.3501C87.6178 32.182 87.8002 32.0473 88.0045 31.9551C88.2088 31.8629 88.4304 31.8152 88.6545 31.8152C88.8787 31.8152 89.1003 31.8629 89.3046 31.9551C89.5089 32.0473 89.6912 32.182 89.8395 32.3501L92.4553 35.412C92.7152 35.7136 92.8494 36.1034 92.8302 36.501C92.811 36.8987 92.6399 37.2738 92.3521 37.5489C92.0643 37.824 91.6819 37.9781 91.2837 37.9793C90.8856 37.9806 90.5022 37.829 90.2127 37.5557V51.1821C90.5025 50.9086 90.8863 50.757 91.2848 50.7584C91.6832 50.7598 92.0659 50.9143 92.3538 51.1898C92.6416 51.4653 92.8127 51.8408 92.8316 52.2388C92.8505 52.6368 92.7157 53.0269 92.4553 53.3284L89.8359 56.3921C89.6876 56.5601 89.5052 56.6947 89.3009 56.7868C89.0966 56.8789 88.8751 56.9266 88.651 56.9266C88.4268 56.9266 88.2053 56.8789 88.001 56.7868C87.7967 56.6947 87.6143 56.5601 87.466 56.3921L84.8493 53.3302C84.5889 53.0287 84.4541 52.6386 84.473 52.2406C84.4919 51.8426 84.663 51.4671 84.9508 51.1915C85.2387 50.916 85.6214 50.7616 86.0198 50.7602C86.4183 50.7587 86.8021 50.9104 87.0919 51.1838L87.0955 51.1821ZM81.701 62.3913L79.7496 65.9145C79.557 66.2619 79.2388 66.5223 78.8603 66.6425C78.4818 66.7627 78.0716 66.7336 77.7139 66.561C77.3562 66.3884 77.0781 66.0855 76.9366 65.7144C76.7952 65.3433 76.801 64.9322 76.9531 64.5653L64.1859 69.3389C64.5355 69.5195 64.8036 69.8258 64.9363 70.1962C65.069 70.5665 65.0564 70.9734 64.901 71.3349C64.7455 71.6963 64.4589 71.9854 64.0988 72.1439C63.7387 72.3023 63.3319 72.3184 62.9604 72.1889L59.1762 70.8111C58.9668 70.731 58.7769 70.6073 58.6189 70.4482C58.461 70.2891 58.3388 70.0982 58.2603 69.8882C58.1818 69.6783 58.1488 69.454 58.1636 69.2303C58.1784 69.0066 58.2406 68.7886 58.3461 68.5908L60.2975 65.0685C60.4904 64.722 60.8085 64.4624 61.1866 64.3427C61.5646 64.223 61.9741 64.2522 62.3314 64.4244C62.6886 64.5967 62.9665 64.8989 63.1083 65.2692C63.25 65.6396 63.2449 66.0501 63.094 66.4169L75.8594 61.6432C75.5098 61.4627 75.2416 61.1563 75.109 60.786C74.9763 60.4156 74.9889 60.0087 75.1443 59.6473C75.2997 59.2858 75.5864 58.9968 75.9465 58.8383C76.3066 58.6798 76.7134 58.6637 77.0849 58.7932L80.8691 60.1719C81.0792 60.2509 81.2699 60.374 81.4285 60.5329C81.5871 60.6918 81.7098 60.8828 81.7884 61.093C81.8671 61.3032 81.8998 61.5279 81.8844 61.7518C81.869 61.9757 81.8058 62.1938 81.6992 62.3913H81.701ZM48.5279 70.6811L44.5975 71.5592C44.2093 71.6478 43.802 71.5839 43.4595 71.3809C43.117 71.1779 42.8654 70.8511 42.7568 70.4681C42.6482 70.085 42.6907 69.6749 42.8756 69.3223C43.0605 68.9697 43.3737 68.7015 43.7505 68.573L31.7075 62.1918C31.8183 62.5773 31.7757 62.9907 31.5887 63.3456C31.4017 63.7004 31.0847 63.9692 30.7041 64.0957C30.3234 64.2222 29.9086 64.1967 29.5464 64.0245C29.1841 63.8522 28.9025 63.5466 28.7604 63.1715L27.2802 59.4264C27.2002 59.2165 27.1659 58.9919 27.1796 58.7676C27.1933 58.5434 27.2546 58.3246 27.3596 58.1259C27.4645 57.9273 27.6106 57.7533 27.7882 57.6155C27.9657 57.4778 28.1705 57.3796 28.389 57.3273L32.3194 56.4491C32.7078 56.3598 33.1157 56.4231 33.4588 56.626C33.8018 56.8289 34.0538 57.1558 34.1627 57.5392C34.2716 57.9227 34.229 58.3332 34.0437 58.6861C33.8584 59.039 33.5447 59.3072 33.1673 59.4354L45.2103 65.8166C45.0995 65.4311 45.1421 65.0177 45.3291 64.6628C45.5161 64.308 45.8331 64.0392 46.2137 63.9127C46.5944 63.7861 47.0092 63.8117 47.3714 63.9839C47.7337 64.1562 48.0153 64.4618 48.1574 64.8369L49.6376 68.5775C49.7144 68.7786 49.749 68.9935 49.7392 69.2086C49.7294 69.4237 49.6754 69.6345 49.5806 69.8279C49.4858 70.0212 49.3521 70.193 49.188 70.3324C49.0239 70.4718 48.8328 70.576 48.6267 70.6384C48.5929 70.6579 48.5626 70.6731 48.5279 70.6811Z" fill="url(#paint0_linear_130_1573)"/>
<defs>
<linearGradient id="paint0_linear_130_1573" x1="117" y1="2.99999" x2="-20.3235" y2="38.5966" gradientUnits="userSpaceOnUse">
<stop stop-color="#0881E0"/>
<stop offset="1" stop-color="#05E8BA"/>
</linearGradient>
</defs>
</svg>
