<svg width="120" height="120" viewBox="0 0 120 120" fill="none" xmlns="http://www.w3.org/2000/svg">
<path d="M3 76.1647V70.3177C3 69.7716 3.21579 69.2479 3.5999 68.8618C3.98401 68.4757 4.50497 68.2588 5.04818 68.2588C5.59139 68.2588 6.11235 68.4757 6.49646 68.8618C6.88056 69.2479 7.09635 69.7716 7.09635 70.3177V76.1647C7.09635 76.7107 6.88056 77.2344 6.49646 77.6205C6.11235 78.0066 5.59139 78.2235 5.04818 78.2235C4.50497 78.2235 3.98401 78.0066 3.5999 77.6205C3.21579 77.2344 3 76.7107 3 76.1647ZM88.7086 80.6471C88.6341 80.7739 88.5462 80.8922 88.4464 81C88.4289 81.0188 88.4195 81.0424 88.4008 81.0612L70.5325 99.0224L56.2374 113.396C55.9496 113.685 55.583 113.882 55.184 113.961C55.1524 113.961 55.1185 113.961 55.0869 113.971C54.9894 113.987 54.8908 113.997 54.7919 114H13.2643C10.543 113.997 7.93402 112.909 6.00976 110.975C4.0855 109.04 3.0031 106.418 3 103.682V86.8941C3 86.3481 3.21579 85.8244 3.5999 85.4383C3.98401 85.0522 4.50497 84.8353 5.04818 84.8353C5.59139 84.8353 6.11235 85.0522 6.49646 85.4383C6.88056 85.8244 7.09635 86.3481 7.09635 86.8941V103.682C7.09821 105.326 7.74864 106.902 8.90495 108.064C10.0613 109.227 11.629 109.88 13.2643 109.882H52.7367V87.8694C52.7395 85.1325 53.8223 82.5085 55.7475 80.5731C57.6726 78.6377 60.283 77.549 63.0057 77.5459H84.9036V14.3176C84.9018 12.6739 84.2514 11.098 83.0951 9.93565C81.9387 8.77333 80.371 8.11952 78.7357 8.11765H13.2643C11.629 8.11952 10.0613 8.77333 8.90495 9.93565C7.74864 11.098 7.09821 12.6739 7.09635 14.3176V59.5882C7.09635 60.1343 6.88056 60.6579 6.49646 61.044C6.11235 61.4301 5.59139 61.6471 5.04818 61.6471C4.50497 61.6471 3.98401 61.4301 3.5999 61.044C3.21579 60.6579 3 60.1343 3 59.5882V14.3176C3.0031 11.5822 4.0855 8.95967 6.00976 7.02541C7.93402 5.09115 10.543 4.00311 13.2643 4H78.7357C81.457 4.00311 84.066 5.09115 85.9902 7.02541C87.9145 8.95967 88.9969 11.5822 89 14.3176V79.6C88.9991 79.7224 88.987 79.8445 88.9637 79.9647C88.9637 79.9953 88.952 80.0247 88.945 80.0553C88.9103 80.2037 88.8593 80.3477 88.7928 80.4847C88.7671 80.5388 88.739 80.5906 88.7086 80.6471ZM56.8331 106.971L68.5978 95.1435L82.0046 81.6635H63.0057C61.369 81.6654 59.7999 82.3199 58.6427 83.4833C57.4854 84.6468 56.8346 86.2242 56.8331 87.8694V106.971ZM25.7933 40.0588C26.1607 38.8701 26.6306 37.7159 27.1977 36.6094C27.1907 36.6 27.1872 36.4918 27.1802 36.4918L25.0501 33.8235C24.4842 33.1254 24.1973 32.2403 24.2456 31.3411C24.2939 30.4418 24.6737 29.5929 25.3111 28.96L28.6432 25.6118C29.275 24.9692 30.1229 24.5873 31.0205 24.5409C31.918 24.4945 32.8004 24.7871 33.4944 25.3612L36.0693 27.4447C36.0798 27.4447 36.1699 27.4553 36.1933 27.4553C37.3159 26.8614 38.487 26.3655 39.694 25.9729C39.7136 25.9675 39.7314 25.9571 39.7458 25.9427C39.7601 25.9282 39.7705 25.9103 39.7759 25.8906L40.127 22.5788C40.2194 21.6819 40.6402 20.8516 41.3078 20.2493C41.9753 19.647 42.8418 19.3158 43.7388 19.32H48.452C49.3447 19.3211 50.2059 19.6521 50.8716 20.2499C51.5374 20.8478 51.9612 21.6708 52.0626 22.5624L52.4032 25.7835L51.9666 27.5659L52.4757 25.8765C53.7324 26.2602 54.9525 26.7559 56.1215 27.3576C56.1285 27.3518 56.2385 27.3576 56.2479 27.3471L58.7198 25.3471C59.4137 24.7773 60.2942 24.4883 61.1889 24.5369C62.0836 24.5854 62.9281 24.9679 63.557 25.6094L66.8879 28.9588C67.5265 29.594 67.9061 30.4459 67.9525 31.3477C67.9988 32.2495 67.7084 33.1362 67.1383 33.8341L65.2107 36.2447L65.1838 36.3624C65.8232 37.5585 66.3456 38.8142 66.7439 40.1118L69.904 40.5059C70.7937 40.6045 71.6161 41.0291 72.2141 41.6986C72.8121 42.3681 73.1439 43.2355 73.1459 44.1353V48.8824C73.1448 49.7799 72.8154 50.6457 72.2204 51.3149C71.6254 51.9842 70.8064 52.4101 69.9192 52.5118L66.8376 52.8424C66.3843 54.1558 65.835 55.4338 65.1943 56.6659L65.2248 56.7835L67.1629 59.2082C67.7293 59.906 68.0164 60.791 67.9681 61.6902C67.9198 62.5894 67.5397 63.4382 66.9019 64.0706L63.571 67.42C62.9388 68.0618 62.091 68.4433 61.1937 68.4896C60.2963 68.536 59.4141 68.2439 58.7198 67.6706L56.2619 65.6859C55.039 66.2617 53.7783 66.7526 52.4886 67.1553C52.4886 67.1553 52.4172 67.2435 52.4161 67.2482L52.0766 70.4518C52.0137 71.0059 51.8269 71.5385 51.5304 72.0099C51.2339 72.4813 50.8353 72.8793 50.3644 73.1741C49.7926 73.5259 49.1352 73.7116 48.4648 73.7106H43.7505C42.8526 73.7144 41.9853 73.3823 41.3175 72.7789C40.6497 72.1754 40.2291 71.3438 40.1375 70.4459L39.7864 67.1518C39.7827 67.1295 39.7726 67.1088 39.7575 67.0921C39.7423 67.0754 39.7227 67.0634 39.701 67.0576C38.495 66.665 37.3247 66.1695 36.2027 65.5765C36.1854 65.5647 36.165 65.5584 36.1442 65.5584C36.1233 65.5584 36.1029 65.5647 36.0857 65.5765L33.4851 67.6776C32.7907 68.2463 31.9106 68.5346 31.0163 68.4864C30.1219 68.4381 29.2776 68.0566 28.6479 67.4165L25.3158 64.0659C24.6769 63.4309 24.2971 62.5789 24.2508 61.677C24.2045 60.7751 24.4949 59.8884 25.0653 59.1906L27.1884 56.5365L27.2024 56.4188C26.632 55.3073 26.159 54.1481 25.7886 52.9541C25.7823 52.9361 25.7714 52.9199 25.7571 52.9074C25.7427 52.8948 25.7253 52.8862 25.7067 52.8824L22.2985 52.5153C21.408 52.4171 20.5848 51.9921 19.9866 51.3218C19.3884 50.6515 19.0572 49.7829 19.0565 48.8824V44.1459C19.0557 43.2494 19.3835 42.3839 19.9772 41.7149C20.5708 41.0458 21.3889 40.62 22.2751 40.5188L25.6961 40.1659C25.7207 40.159 25.7428 40.1453 25.76 40.1264C25.7772 40.1074 25.7887 40.084 25.7933 40.0588V40.0588ZM26.0777 43.6671L22.6648 44.02C22.6485 44.022 22.6329 44.0278 22.6191 44.0367C22.6054 44.0457 22.5938 44.0577 22.5852 44.0718L22.5677 48.8824C22.5677 48.9136 22.58 48.9435 22.602 48.9655C22.6239 48.9876 22.6537 49 22.6847 49L26.066 49.3635C26.7662 49.4374 27.4297 49.7151 27.9752 50.1625C28.5208 50.61 28.9245 51.2077 29.1371 51.8824C29.4448 52.8869 29.8396 53.8624 30.3168 54.7977C30.6451 55.4271 30.7811 56.14 30.7076 56.8469C30.634 57.5537 30.3544 58.223 29.9037 58.7706L27.7876 61.4153C27.7695 61.4377 27.7602 61.466 27.7615 61.4949C27.7628 61.5237 27.7746 61.5511 27.7946 61.5718L31.1267 64.9212C31.144 64.9412 31.168 64.9541 31.1942 64.9574C31.2203 64.9606 31.2468 64.954 31.2683 64.9388L33.876 62.8318C34.5162 62.3103 35.3155 62.0262 36.1395 62.0271C36.7332 62.0274 37.3178 62.1736 37.8424 62.4529C38.7878 62.9524 39.7742 63.3692 40.7906 63.6988C41.4578 63.9158 42.0479 64.3227 42.4894 64.8703C42.9309 65.4179 43.2047 66.0825 43.2777 66.7835L43.6288 70.0777C43.6336 70.1058 43.6478 70.1314 43.6691 70.1502C43.6904 70.169 43.7175 70.18 43.7458 70.1812H48.459C48.4912 70.1758 48.5209 70.1601 48.5435 70.1363C48.566 70.1125 48.5803 70.082 48.5842 70.0494L48.9201 66.8729C48.9911 66.1618 49.2706 65.4878 49.7232 64.9365C50.1757 64.3852 50.781 63.9815 51.4622 63.7765C52.5184 63.4575 53.5427 63.04 54.5216 62.5294C55.1458 62.2031 55.8511 62.0671 56.5511 62.1379C57.2511 62.2088 57.9153 62.4834 58.4623 62.9282L60.9318 64.9282C60.954 64.9461 60.9819 64.9553 61.0104 64.954C61.0388 64.9527 61.0658 64.941 61.0863 64.9212L64.4172 61.5718C64.4371 61.5544 64.45 61.5303 64.4532 61.504C64.4564 61.4777 64.4499 61.4511 64.4348 61.4294L62.4861 58.9918C62.0356 58.438 61.7585 57.7625 61.6898 57.0506C61.6211 56.3387 61.7637 55.6222 62.0998 54.9918C62.6341 53.9983 63.0689 52.954 63.3978 51.8741C63.6053 51.1899 64.0101 50.583 64.561 50.1302C65.1119 49.6774 65.784 49.3992 66.4923 49.3306L69.5447 49.0035C69.5722 48.9978 69.5971 48.9832 69.6157 48.962C69.6342 48.9407 69.6455 48.9141 69.6477 48.8859V44.1459C69.6442 44.1159 69.6307 44.088 69.6095 44.0666C69.5882 44.0453 69.5605 44.0317 69.5306 44.0282L66.4818 43.6965C65.7757 43.6264 65.1063 43.3475 64.5579 42.8949C64.0096 42.4424 63.6071 41.8366 63.4013 41.1541C63.069 40.0746 62.634 39.0297 62.1022 38.0341C61.7672 37.4029 61.6258 36.6861 61.6958 35.9742C61.7658 35.2623 62.044 34.5872 62.4954 34.0341L64.4277 31.6176C64.4471 31.596 64.4573 31.5676 64.4559 31.5386C64.4546 31.5095 64.442 31.4821 64.4207 31.4624L61.0863 28.1106C61.0692 28.0903 61.0451 28.0773 61.0189 28.074C60.9927 28.0707 60.9662 28.0775 60.9447 28.0929L58.4576 30.1012C57.9136 30.5483 57.2507 30.8245 56.5515 30.8952C55.8524 30.9659 55.148 30.8281 54.5263 30.4988C53.5464 29.9948 52.5237 29.5798 51.4704 29.2588C50.7871 29.0515 50.1804 28.6448 49.7274 28.0904C49.2744 27.536 48.9955 26.8588 48.926 26.1447L48.5889 22.9565C48.583 22.9289 48.5684 22.904 48.5474 22.8853C48.5263 22.8667 48.4998 22.8553 48.4719 22.8529H43.7505C43.7228 22.8525 43.6958 22.8619 43.6744 22.8796C43.653 22.8973 43.6385 22.922 43.6335 22.9494L43.2824 26.2576C43.2084 26.9564 42.9344 27.6187 42.4936 28.1641C42.0528 28.7095 41.4641 29.1147 40.7988 29.3306C39.7826 29.6612 38.7962 30.0784 37.8506 30.5776C37.2245 30.9186 36.5114 31.0641 35.8026 30.9956C35.0937 30.9271 34.4213 30.6476 33.8713 30.1929L31.2859 28.1047C31.2754 28.0947 31.263 28.0868 31.2494 28.0817C31.2358 28.0765 31.2213 28.0741 31.2068 28.0747C31.1923 28.0752 31.1781 28.0787 31.1649 28.0849C31.1518 28.091 31.14 28.0998 31.1302 28.1106L27.7982 31.46C27.7782 31.4773 27.7654 31.5016 27.7624 31.528C27.7593 31.5543 27.7662 31.5809 27.7818 31.6024L29.9271 34.2941C30.3709 34.8409 30.6446 35.5069 30.7141 36.2091C30.7836 36.9112 30.6459 37.6184 30.318 38.2424C29.8444 39.1677 29.4523 40.1329 29.1464 41.1271C28.9324 41.8028 28.5291 42.4021 27.9848 42.8532C27.4405 43.3044 26.7784 43.5882 26.0777 43.6706V43.6671ZM46.1053 58.6941C46.9448 58.6918 47.7818 58.6051 48.6041 58.4353C49.0542 58.3368 49.4477 58.0644 49.6999 57.6769C49.952 57.2894 50.0425 56.8179 49.9519 56.3639C49.8613 55.9099 49.5968 55.5099 49.2155 55.2502C48.8342 54.9904 48.3666 54.8917 47.9136 54.9753C47.3187 55.0991 46.7129 55.1626 46.1053 55.1647C44.2995 55.1646 42.5395 54.594 41.0739 53.5336C39.6083 52.4732 38.5112 50.9766 37.9378 49.2554C37.3644 47.5341 37.3437 45.6753 37.8784 43.9416C38.4132 42.2078 39.4765 40.6868 40.9181 39.5936C42.3596 38.5004 44.1065 37.8902 45.9118 37.8493C47.7171 37.8083 49.4896 38.3387 50.9787 39.3655C52.4678 40.3923 53.5983 41.8635 54.2103 43.5713C54.8223 45.279 54.8849 47.1369 54.3893 48.8824C54.2614 49.3324 54.3167 49.8152 54.5429 50.2243C54.769 50.6335 55.1477 50.9356 55.5954 51.0641C56.0432 51.1927 56.5234 51.1372 56.9304 50.9098C57.3375 50.6824 57.638 50.3019 57.7659 49.8518C58.4624 47.3961 58.3736 44.7826 57.5121 42.3805C56.6507 39.9783 55.0601 37.909 52.9651 36.4649C50.8701 35.0207 48.3767 34.2748 45.8371 34.3325C43.2975 34.3902 40.8401 35.2486 38.8122 36.7864C36.7842 38.3242 35.2883 40.4637 34.5357 42.9025C33.7831 45.3413 33.8119 47.9562 34.618 50.3777C35.4241 52.7992 36.9668 54.9048 39.0281 56.3971C41.0894 57.8894 43.5651 58.6929 46.1053 58.6941V58.6941Z" fill="url(#paint0_linear_130_1572)"/>
<defs>
<linearGradient id="paint0_linear_130_1572" x1="89" y1="3.99999" x2="-17.1943" y2="25.5214" gradientUnits="userSpaceOnUse">
<stop stop-color="#0881E0"/>
<stop offset="1" stop-color="#05E8BA"/>
</linearGradient>
</defs>
</svg>
