<svg width="120" height="120" viewBox="0 0 120 120" fill="none" xmlns="http://www.w3.org/2000/svg">
<path d="M118.213 57.0175H111.323V49.095C111.321 47.2679 110.594 45.5163 109.302 44.2244C108.009 42.9325 106.257 42.2057 104.43 42.2035H72.5882V25.7867C72.5884 25.552 72.5423 25.3196 72.4525 25.1028C72.3627 24.8859 72.2311 24.6889 72.0651 24.523C71.8991 24.3571 71.702 24.2255 71.4851 24.1357C71.2682 24.046 71.0358 23.9999 70.801 24H49.199C48.725 24 48.2704 24.1882 47.9352 24.5233C47.6 24.8584 47.4117 25.3128 47.4117 25.7867V42.2035H44.977C44.503 42.2035 44.0484 42.3918 43.7133 42.7268C43.3781 43.0619 43.1898 43.5164 43.1898 43.9902C43.1898 44.4641 43.3781 44.9185 43.7133 45.2536C44.0484 45.5886 44.503 45.7769 44.977 45.7769H104.426C105.305 45.778 106.149 46.1279 106.771 46.7499C107.394 47.3719 107.744 48.2153 107.745 49.095V90.1065C107.744 90.9862 107.394 91.8296 106.771 92.4516C106.149 93.0736 105.305 93.4235 104.426 93.4246H98.6625C98.1885 93.4246 97.7339 93.6129 97.3987 93.9479C97.0635 94.283 96.8752 94.7374 96.8752 95.2113C96.8752 95.6851 97.0635 96.1396 97.3987 96.4747C97.7339 96.8097 98.1885 96.998 98.6625 96.998H104.426C106.253 96.9958 108.005 96.269 109.298 94.9771C110.59 93.6852 111.317 91.9336 111.319 90.1065V82.185H118.213C118.448 82.1851 118.68 82.139 118.897 82.0493C119.114 81.9595 119.311 81.8279 119.477 81.662C119.643 81.496 119.774 81.299 119.864 81.0822C119.954 80.8654 120 80.633 120 80.3983V58.8042C120 58.5695 119.954 58.3371 119.864 58.1203C119.774 57.9035 119.643 57.7065 119.477 57.5405C119.311 57.3746 119.114 57.243 118.897 57.1533C118.68 57.0635 118.448 57.0174 118.213 57.0175ZM50.9862 27.5733H69.0138V42.2035H50.9862V27.5733ZM116.426 78.6117H111.319V60.5909H116.426V78.6117ZM89.1064 93.4246H75.4815C74.5598 93.4253 73.6488 93.2261 72.8115 92.8408C71.9742 92.4555 71.2304 91.8932 70.6315 91.1928L65.2371 84.8844C64.5904 84.1274 63.7873 83.5196 62.883 83.1029C61.9787 82.6861 60.9947 82.4703 59.999 82.4703C59.0032 82.4703 58.0193 82.6861 57.115 83.1029C56.2107 83.5196 55.4075 84.1274 54.7608 84.8844L49.3695 91.1867C48.7709 91.8885 48.027 92.452 47.1893 92.8383C46.3516 93.2247 45.44 93.4247 44.5174 93.4246H15.5745C14.6938 93.4246 13.8491 93.0752 13.226 92.453C12.6029 91.8309 12.2523 90.9869 12.2512 90.1065V49.095C12.2523 48.2153 12.6024 47.3719 13.2246 46.7499C13.8468 46.1279 14.6904 45.778 15.5704 45.7769H21.0853C21.5593 45.7769 22.0139 45.5886 22.349 45.2536C22.6842 44.9185 22.8725 44.4641 22.8725 43.9902C22.8725 43.5164 22.6842 43.0619 22.349 42.7268C22.0139 42.3918 21.5593 42.2035 21.0853 42.2035H15.5745C13.7467 42.2054 11.9944 42.9321 10.702 44.2241C9.40964 45.5161 8.68274 47.2678 8.68085 49.095V57.0175H1.78723C1.31323 57.0175 0.85864 57.2058 0.523469 57.5408C0.188297 57.8759 0 58.3303 0 58.8042V80.3983C0 80.8722 0.188297 81.3266 0.523469 81.6617C0.85864 81.9967 1.31323 82.185 1.78723 82.185H8.67677V90.1065C8.67866 91.9337 9.40556 93.6854 10.6979 94.9774C11.9903 96.2694 13.7427 96.9961 15.5704 96.998H44.5174C45.9563 96.9991 47.3782 96.688 48.685 96.086C49.9917 95.484 51.1522 94.6056 52.0861 93.5114L57.4774 87.2081C57.7888 86.8437 58.1754 86.5511 58.6107 86.3505C59.046 86.1499 59.5196 86.046 59.999 86.046C60.4783 86.046 60.952 86.1499 61.3873 86.3505C61.8226 86.5511 62.2092 86.8437 62.5205 87.2081L67.9149 93.5155C68.8489 94.6089 70.0092 95.4867 71.3155 96.0882C72.6219 96.6898 74.0432 97.0009 75.4815 97H89.1064C89.5804 97 90.035 96.8118 90.3701 96.4767C90.7053 96.1416 90.8936 95.6872 90.8936 95.2133C90.8936 94.7395 90.7053 94.285 90.3701 93.95C90.035 93.6149 89.5804 93.4267 89.1064 93.4267V93.4246ZM3.57447 78.6117V60.5909H8.68085V78.6117H3.57447ZM29.1574 43.9902C29.1574 43.5164 29.3457 43.0619 29.6809 42.7268C30.0161 42.3918 30.4707 42.2035 30.9447 42.2035H35.5404C36.0144 42.2035 36.469 42.3918 36.8042 42.7268C37.1394 43.0619 37.3277 43.5164 37.3277 43.9902C37.3277 44.4641 37.1394 44.9185 36.8042 45.2536C36.469 45.5886 36.0144 45.7769 35.5404 45.7769H30.9447C30.4707 45.7769 30.0161 45.5886 29.6809 45.2536C29.3457 44.9185 29.1574 44.4641 29.1574 43.9902ZM49.1959 54.1752C48.7219 54.1752 48.2673 53.987 47.9321 53.6519C47.597 53.3168 47.4087 52.8624 47.4087 52.3885C47.4087 51.9147 47.597 51.4602 47.9321 51.1252C48.2673 50.7901 48.7219 50.6019 49.1959 50.6019H70.801C71.275 50.6019 71.7296 50.7901 72.0648 51.1252C72.4 51.4602 72.5882 51.9147 72.5882 52.3885C72.5882 52.8624 72.4 53.3168 72.0648 53.6519C71.7296 53.987 71.275 54.1752 70.801 54.1752H49.1959Z" fill="url(#paint0_linear_130_1575)"/>
<defs>
<linearGradient id="paint0_linear_130_1575" x1="120" y1="24" x2="-10.5584" y2="79.6323" gradientUnits="userSpaceOnUse">
<stop stop-color="#0881E0"/>
<stop offset="1" stop-color="#05E8BA"/>
</linearGradient>
</defs>
</svg>
