<svg width="120" height="120" viewBox="0 0 120 120" fill="none" xmlns="http://www.w3.org/2000/svg">
<path d="M0.223392 43.1516V41.0316C0.223392 39.9158 1.11697 39.0232 2.23393 39.0232C3.3509 39.0232 4.24447 39.9158 4.24447 41.0316V43.1516C4.24447 44.2674 3.3509 45.16 2.23393 45.16C1.11697 45.16 0.223392 44.1558 0.223392 43.1516ZM94.7187 75.3979V100.392C94.7187 101.507 93.8251 102.288 92.8198 102.4H67.7998C66.0126 102.4 65.2308 100.28 66.4594 99.0526L91.4794 74.0589C92.5964 72.8316 94.7187 73.7242 94.7187 75.3979V75.3979ZM90.8093 80.1958L72.491 98.4947H90.8093V80.1958ZM105.33 52.7474V68.2568C105.33 69.3726 104.436 70.2653 103.319 70.2653C102.202 70.2653 101.309 69.3726 101.309 68.2568V54.5326C85.0011 70.8232 62.9968 92.8042 46.8008 108.983H50.4868V106.417C50.4868 105.301 51.3804 104.52 52.4974 104.52C53.6143 104.52 54.3962 105.413 54.3962 106.417V108.983H57.9705V107.756C57.9705 106.64 58.8641 105.747 59.981 105.747C61.098 105.747 61.9916 106.64 61.9916 107.756V108.983H65.5659V106.417C65.5659 105.301 66.4594 104.408 67.5764 104.408C68.6934 104.408 69.5869 105.301 69.5869 106.417V108.983H73.1612V107.756C73.1612 106.64 74.0548 105.747 75.1718 105.747C76.2887 105.747 77.1823 106.64 77.1823 107.756V108.983H80.7566V106.417C80.7566 105.301 81.6502 104.408 82.7671 104.408C83.8841 104.408 84.7777 105.301 84.7777 106.417V108.983H88.3519V107.756C88.3519 106.64 89.2455 105.747 90.3625 105.747C91.4794 105.747 92.373 106.64 92.373 107.756V108.983H95.9473V106.417C95.9473 105.301 96.8409 104.408 97.9579 104.408C99.0748 104.408 99.9684 105.301 99.9684 106.417V108.983H101.979V83.32C101.979 82.2042 102.872 81.3116 103.989 81.3116C105.106 81.3116 106 82.2042 106 83.32V110.992C106 112.107 105.106 112.888 104.101 113H45.0137C43.2266 113 41.8862 111.549 41.8862 109.876C41.8862 109.095 42.2213 108.202 42.7798 107.644L52.9442 97.4905H12.1749C5.58483 97.4905 0.111697 92.1347 0.111697 85.44V56.0947C0.111697 54.9789 1.00527 54.0863 2.12223 54.0863C3.2392 54.0863 4.13277 54.9789 4.13277 56.0947V76.6253C6.3667 74.6168 9.27081 73.5011 12.2866 73.5011H19.3235V11.0168H11.058C7.03688 11.5747 4.02108 15.0337 4.02108 19.0505V27.3074C4.02108 28.4232 3.1275 29.3158 2.01054 29.3158C0.893571 29.3158 0 28.4232 0 27.3074V19.0505C0 12.3558 5.47313 7 12.0632 7H21.1106C22.2276 7 23.0095 7.89263 23.1212 8.89684V27.1958H72.491C74.2782 25.4105 66.1243 33.5558 89.5806 10.1242C92.4847 7.22316 97.176 7.22316 100.08 10.1242L102.426 12.4674C105.33 15.3684 105.33 20.0547 102.426 22.8442L92.2613 32.9979V58.2147L99.9684 50.5158C101.979 48.5074 105.33 49.9579 105.33 52.7474V52.7474ZM88.0169 17.3768C89.2455 18.6042 95.6122 24.9642 95.2771 24.6295L99.745 20.1663C101.085 18.8274 101.085 16.5958 99.745 15.2568C99.6333 15.1453 97.2877 12.8021 97.3994 12.9137C96.059 11.5747 93.8251 11.5747 92.4847 12.9137L88.0169 17.3768ZM88.3519 37.0147L66.3477 58.8842C66.1243 59.1074 65.901 59.219 65.5659 59.3305C65.3425 59.4421 58.3056 61.5621 51.0453 63.7937C49.4816 64.24 48.1412 62.7895 48.588 61.3389C48.588 61.3389 52.9441 47.1684 53.0558 46.8337C53.1675 46.4989 53.5026 46.1642 53.6143 46.0526C57.3003 42.4821 68.5817 31.1011 68.5817 31.1011H23.1212V75.2863C23.1212 76.4021 22.2276 77.2947 21.1106 77.2947H12.1749C7.70706 77.2947 4.02108 80.9768 4.02108 85.44C4.02108 89.9032 7.70706 93.5853 12.1749 93.5853H56.8535L88.2402 62.2316V37.0147H88.3519ZM55.5132 52.5242L53.5026 58.9958L59.981 56.9874C59.5342 56.4295 58.8641 55.6484 58.3056 54.0863C57.3003 53.8632 56.295 53.3053 55.5132 52.5242ZM92.4847 27.3074C92.373 27.1958 85.1127 19.9432 85.2244 20.0547L57.0769 48.1726C57.5237 49.5116 58.7524 50.4042 60.2044 50.6274C61.098 50.7389 61.7682 51.4084 61.8799 52.3011C61.9916 53.64 62.9968 54.8674 64.3372 55.4253C64.5606 55.2021 61.9916 57.6568 92.4847 27.3074Z" fill="url(#paint0_linear_130_1574)"/>
<defs>
<linearGradient id="paint0_linear_130_1574" x1="106" y1="6.99999" x2="-21.6868" y2="40.0986" gradientUnits="userSpaceOnUse">
<stop stop-color="#0881E0"/>
<stop offset="1" stop-color="#05E8BA"/>
</linearGradient>
</defs>
</svg>
