<svg width="24" height="24" viewBox="0 0 24 24" fill="none" xmlns="http://www.w3.org/2000/svg">
<path d="M20.55 3.6748C20.55 3.4498 20.475 3.2998 20.325 3.1498C20.175 2.9998 20.025 2.9248 19.8 2.9248C19.575 2.9248 19.425 2.9998 19.275 3.1498L17.25 5.1748C15.75 4.4248 14.025 3.9748 12 3.7498C8.25 4.1248 5.25 5.4748 3.15 7.8748C1.05 10.2748 0 11.6248 0 11.9998C0 12.3748 1.125 13.7248 3.15 16.1248C3.675 16.7248 4.2 17.2498 4.875 17.6998L2.85 19.7998C2.7 19.9498 2.625 20.0998 2.625 20.3248C2.625 20.5498 2.7 20.6998 2.85 20.8498C3 20.9998 3.15 21.0748 3.375 21.0748C3.6 21.0748 3.75 20.9998 3.9 20.8498L20.4 4.1998C20.475 4.0498 20.55 3.8998 20.55 3.6748ZM5.4 16.0498C3.6 14.3998 2.4 13.0498 1.8 11.9998C2.475 10.8748 3.675 9.52481 5.4 7.94981C7.125 6.37481 9.375 5.3998 12 5.2498C13.5 5.3248 14.925 5.6998 16.125 6.2998L14.85 7.57481C14.025 7.04981 13.125 6.7498 12 6.7498C10.5 6.7498 9.3 7.27481 8.25 8.2498C7.2 9.2248 6.75 10.4998 6.75 11.9998C6.75 13.1248 7.05 14.0998 7.575 14.9248L6 16.5748C5.775 16.4248 5.55 16.1998 5.4 16.0498ZM8.7 13.7998C8.4 13.2748 8.25 12.6748 8.25 11.9998C8.25 10.9498 8.625 10.0498 9.375 9.37481C10.125 8.69981 10.95 8.2498 12 8.2498C12.675 8.2498 13.275 8.39981 13.725 8.69981L8.7 13.7998ZM20.85 7.8748C20.55 7.4998 20.175 7.1998 19.875 6.8998L18.75 8.02481C20.475 9.5998 21.675 10.9498 22.275 11.9998C21.6 13.1248 20.4 14.4748 18.675 16.0498C16.95 17.6248 14.625 18.5998 12 18.7498C10.8 18.6748 9.67498 18.4498 8.69998 18.0748L7.57498 19.1998C8.92498 19.7248 10.35 20.0998 12 20.2498C15.75 19.8748 18.75 18.5248 20.85 16.1248C22.95 13.7248 24 12.3748 24 11.9998C24 11.6248 22.875 10.2748 20.85 7.8748Z" fill="#CCCCCC"/>
<path d="M11.9984 15.7499C11.6984 15.7499 11.3984 15.6749 11.0984 15.5999L9.89844 16.7999C10.5734 17.0999 11.2484 17.2499 11.9984 17.2499C13.4984 17.2499 14.6984 16.7249 15.7484 15.7499C16.7234 14.7749 17.2484 13.4999 17.2484 11.9999C17.2484 11.2499 17.0984 10.4999 16.7984 9.8999L15.5984 11.0999C15.6734 11.3999 15.7484 11.6999 15.7484 11.9999C15.7484 13.0499 15.3734 13.9499 14.6234 14.6249C13.8734 15.2999 13.0484 15.7499 11.9984 15.7499Z" fill="#CCCCCC"/>
</svg>
