<svg width="33" height="33" viewBox="0 0 33 33" fill="none" xmlns="http://www.w3.org/2000/svg">
<path d="M16.5001 0.5C7.66491 0.5 0.501709 7.70717 0.501709 16.5966C0.501709 24.6296 6.35131 31.2878 14.0009 32.5V21.2506H9.93691V16.5966H14.0009V13.0502C14.0009 9.01273 16.3897 6.78635 20.0425 6.78635C21.7929 6.78635 23.6265 7.10026 23.6265 7.10026V11.0588H21.6041C19.6201 11.0588 18.9993 12.3016 18.9993 13.575V16.5934H23.4329L22.7241 21.2474H18.9993V32.4968C26.6489 31.291 32.4985 24.6312 32.4985 16.5966C32.4985 7.70717 25.3353 0.5 16.5001 0.5Z" fill="url(#paint0_linear_230_698)"/>
<defs>
<linearGradient id="paint0_linear_230_698" x1="32.4985" y1="0.499996" x2="-6.04507" y2="10.4902" gradientUnits="userSpaceOnUse">
<stop stop-color="#0881E0"/>
<stop offset="1" stop-color="#05E8BA"/>
</linearGradient>
</defs>
</svg>
