<svg width="33" height="33" viewBox="0 0 33 33" fill="none" xmlns="http://www.w3.org/2000/svg">
<path fill-rule="evenodd" clip-rule="evenodd" d="M16.4983 32.5C25.3348 32.5 32.4983 25.3366 32.4983 16.5C32.4983 7.66344 25.3348 0.5 16.4983 0.5C7.66174 0.5 0.498291 7.66344 0.498291 16.5C0.498291 25.3366 7.66174 32.5 16.4983 32.5ZM13.1999 8.548C14.0535 8.5096 14.3255 8.5 16.4983 8.5C18.6711 8.5 18.9431 8.5096 19.7967 8.548C20.6479 8.5872 21.2295 8.7224 21.7383 8.92C22.2723 9.12068 22.7561 9.43546 23.1559 9.8424C23.5628 10.2422 23.8776 10.726 24.0783 11.26C24.2759 11.7688 24.4111 12.3504 24.4503 13.2016C24.4887 14.0552 24.4983 14.3272 24.4983 16.5C24.4983 18.6728 24.4887 18.9448 24.4503 19.7984C24.4111 20.6496 24.2759 21.2312 24.0783 21.74C23.8776 22.274 23.5628 22.7578 23.1559 23.1576C22.7561 23.5645 22.2723 23.8793 21.7383 24.08C21.2295 24.2776 20.6479 24.4128 19.7967 24.452C18.9431 24.4904 18.6711 24.5 16.4983 24.5C14.3255 24.5 14.0535 24.4904 13.1999 24.452C12.3487 24.4128 11.7671 24.2776 11.2583 24.08C10.7243 23.8793 10.2405 23.5645 9.84069 23.1576C9.4338 22.7578 9.11901 22.274 8.91829 21.74C8.72069 21.2312 8.58549 20.6496 8.54629 19.7984C8.50709 18.9448 8.49829 18.6728 8.49829 16.5C8.49829 14.3272 8.50709 14.0552 8.54629 13.2016C8.58549 12.3504 8.72069 11.7688 8.91829 11.26C9.11899 10.726 9.43378 10.2422 9.84069 9.8424C10.2405 9.43546 10.7243 9.12068 11.2583 8.92C11.7671 8.7224 12.3487 8.5872 13.1999 8.548ZM19.7303 9.988C18.8871 9.9496 18.6343 9.9416 16.4983 9.9416C14.3615 9.9416 14.1095 9.9496 13.2655 9.988C12.4855 10.0232 12.0623 10.1536 11.7799 10.2632C11.4071 10.4088 11.1399 10.5816 10.8599 10.8616C10.5807 11.1416 10.4071 11.4088 10.2615 11.7816C10.1519 12.064 10.0223 12.4872 9.98629 13.268C9.94789 14.1112 9.93989 14.364 9.93989 16.5C9.93989 18.6368 9.94789 18.8888 9.98629 19.7328C10.0215 20.5128 10.1519 20.936 10.2615 21.2184C10.3897 21.5659 10.5942 21.8803 10.8599 22.1384C11.118 22.4041 11.4324 22.6086 11.7799 22.7368C12.0623 22.8456 12.4855 22.976 13.2663 23.012C14.1087 23.0504 14.3623 23.0584 16.4983 23.0584C18.6351 23.0584 18.8879 23.0504 19.7311 23.012C20.5111 22.9768 20.9343 22.8456 21.2167 22.7368C21.5895 22.5912 21.8567 22.4184 22.1367 22.1384C22.4024 21.8803 22.6068 21.5659 22.7351 21.2184C22.8439 20.936 22.9743 20.5128 23.0103 19.732C23.0487 18.8888 23.0567 18.636 23.0567 16.5C23.0567 14.3632 23.0487 14.1112 23.0103 13.2672C22.9751 12.4872 22.8439 12.064 22.7351 11.7816C22.5895 11.4088 22.4167 11.1416 22.1367 10.8616C21.8567 10.5824 21.5895 10.4088 21.2167 10.2632C20.9343 10.1536 20.5111 10.024 19.7303 9.988ZM14.6129 18.3854C15.1129 18.8855 15.7911 19.1664 16.4983 19.1664C17.2055 19.1664 17.8837 18.8855 18.3837 18.3854C18.8838 17.8854 19.1647 17.2072 19.1647 16.5C19.1647 15.7928 18.8838 15.1146 18.3837 14.6146C17.8837 14.1145 17.2055 13.8336 16.4983 13.8336C15.7911 13.8336 15.1129 14.1145 14.6129 14.6146C14.1128 15.1146 13.8319 15.7928 13.8319 16.5C13.8319 17.2072 14.1128 17.8854 14.6129 18.3854ZM14.9262 12.7047C15.4246 12.4983 15.9588 12.392 16.4983 12.392C17.5878 12.392 18.6327 12.8248 19.4031 13.5952C20.1735 14.3656 20.6063 15.4105 20.6063 16.5C20.6063 17.5895 20.1735 18.6344 19.4031 19.4048C18.6327 20.1752 17.5878 20.608 16.4983 20.608C15.9588 20.608 15.4246 20.5017 14.9262 20.2953C14.4278 20.0889 13.975 19.7863 13.5935 19.4048C13.212 19.0233 12.9094 18.5705 12.703 18.0721C12.4965 17.5737 12.3903 17.0395 12.3903 16.5C12.3903 15.9605 12.4965 15.4263 12.703 14.9279C12.9094 14.4295 13.212 13.9767 13.5935 13.5952C13.975 13.2137 14.4278 12.9111 14.9262 12.7047ZM21.6556 12.597C21.7039 12.4805 21.7287 12.3557 21.7287 12.2296C21.7287 11.975 21.6275 11.7308 21.4475 11.5508C21.2675 11.3707 21.0233 11.2696 20.7687 11.2696C20.5141 11.2696 20.2699 11.3707 20.0899 11.5508C19.9098 11.7308 19.8087 11.975 19.8087 12.2296C19.8087 12.3557 19.8335 12.4805 19.8818 12.597C19.93 12.7134 20.0007 12.8193 20.0899 12.9084C20.179 12.9976 20.2848 13.0683 20.4013 13.1165C20.5178 13.1648 20.6426 13.1896 20.7687 13.1896C20.8948 13.1896 21.0196 13.1648 21.1361 13.1165C21.2525 13.0683 21.3584 12.9976 21.4475 12.9084C21.5367 12.8193 21.6074 12.7134 21.6556 12.597Z" fill="url(#paint0_linear_230_704)"/>
<defs>
<linearGradient id="paint0_linear_230_704" x1="32.4983" y1="0.499996" x2="-6.04866" y2="10.492" gradientUnits="userSpaceOnUse">
<stop stop-color="#0881E0"/>
<stop offset="1" stop-color="#05E8BA"/>
</linearGradient>
</defs>
</svg>
