<svg width="33" height="33" viewBox="0 0 33 33" fill="none" xmlns="http://www.w3.org/2000/svg">
<path d="M16.4983 0.5C7.66162 0.5 0.498291 7.66333 0.498291 16.5C0.498291 25.3367 7.66162 32.5 16.4983 32.5C25.335 32.5 32.4983 25.3367 32.4983 16.5C32.4983 7.66333 25.335 0.5 16.4983 0.5ZM12.5816 23.1317H9.34162V12.705H12.5816V23.1317ZM10.9416 11.425C9.91829 11.425 9.25662 10.7 9.25662 9.80333C9.25662 8.88833 9.93829 8.185 10.9833 8.185C12.0283 8.185 12.6683 8.88833 12.6883 9.80333C12.6883 10.7 12.0283 11.425 10.9416 11.425ZM24.415 23.1317H21.175V17.3533C21.175 16.0083 20.705 15.095 19.5333 15.095C18.6383 15.095 18.1066 15.7133 17.8716 16.3083C17.785 16.52 17.7633 16.82 17.7633 17.1183V23.13H14.5216V16.03C14.5216 14.7283 14.48 13.64 14.4366 12.7033H17.2516L17.4 14.1517H17.465C17.8916 13.4717 18.9366 12.4683 20.685 12.4683C22.8166 12.4683 24.415 13.8967 24.415 16.9667V23.1317Z" fill="url(#paint0_linear_230_702)"/>
<defs>
<linearGradient id="paint0_linear_230_702" x1="32.4983" y1="0.499996" x2="-6.04866" y2="10.492" gradientUnits="userSpaceOnUse">
<stop stop-color="#0881E0"/>
<stop offset="1" stop-color="#05E8BA"/>
</linearGradient>
</defs>
</svg>
