<svg width="59" height="60" fill="none" xmlns="http://www.w3.org/2000/svg"><path d="M38.446 6.705c-1.778-.312-4.469-.508-7.421.459-1.387.459-2.268 1-4.127 2.098a478.417 478.417 0 0 1-8.058 4.672L7.993 20.23c-.767-.46-2.855-1.853-3.736-4.509a7.518 7.518 0 0 1-.375-2.377L24.696 1.28 26.898 0c.065.033.522.311.979.574.407.246.848.492.978.574.506.278 4.372 2.524 9.591 5.557ZM58.836 35.115v.032l-.082.05c.032-.033.049-.066.082-.082Z" fill="#fff"/><path d="M38.446 6.689c-1.843-1.066-3.67-2.132-5.513-3.197-1.974-.525-3.98-.082-5.057 1.197-.946 1.114-1.06 2.72-1.076 3.082a6.037 6.037 0 0 0 .114 1.475L58.852 27.77v-9.245c-6.819-3.935-13.604-7.886-20.406-11.836ZM53.632 36.705a1.498 1.498 0 0 1-.114.23c-.065.114-.114.229-.18.327-.032.05-.065.099-.097.164-.082.131-.147.246-.229.344-.032.05-.065.082-.098.132-.032.049-.065.082-.097.13a.285.285 0 0 1-.066.083c-.032.032-.065.082-.097.114-.05.05-.082.115-.131.164-.033.033-.065.082-.098.115l-.196.197-.097.098a11.09 11.09 0 0 1-.767.656c-.196.148-.359.246-.49.328l-.195-.115-1.126-.656-22.689-13.163v-9.296L54.187 32.41c0 .049.016.098.032.147 0 .017 0 .05.017.066.016.115.032.246.049.41 0 .049 0 .082.016.13 0 .083.016.181.016.28v.098c0 .852-.13 1.984-.685 3.164Z" fill="#fff"/><path d="m58.754 35.18.082-.049v9.262L40.959 54.77c-.082.05-.376.214-.832.492l-.147.082c-.245.148-.522.312-.832.492l-.196.115c-.522.311-1.125.656-1.794 1.033l-.604.36-.57.328a7.629 7.629 0 0 1-3.23-3.279 7.765 7.765 0 0 1-.816-3.655l18.938-10.984c.13-.082.294-.18.49-.328a7.113 7.113 0 0 0 2.838-6.869c0-.065-.017-.114-.033-.164a.343.343 0 0 1 .098.066c.57.328 1.125.656 1.696.984.946.557 1.892 1.098 2.855 1.655-.017.033-.033.066-.066.082Z" fill="#fff"/><path d="M40.958 54.77c-.293.165-3.703 2.148-7.405 4.296-.05.032-1.55.901-1.599.934-2.186-1.262-4.371-2.54-6.54-3.803L0 41.459v-9.262L30.992 50.18c.31.18.636.361.946.541.391.722 1.174 1.951 2.61 2.919 2.773 1.852 5.774 1.278 6.41 1.13ZM31.905 34.115v9.262L.016 24.869H0v-9.262h.016c1.289-.755 2.578-1.492 3.866-2.246 0 .655.082 1.475.375 2.377.865 2.655 2.969 4.049 3.736 4.508l23.912 13.869Z" fill="#fff"/></svg>