<svg width="33" height="33" viewBox="0 0 33 33" fill="none" xmlns="http://www.w3.org/2000/svg">
<path d="M16.4983 0.5C7.66162 0.5 0.498291 7.66333 0.498291 16.5C0.498291 25.3367 7.66162 32.5 16.4983 32.5C25.335 32.5 32.4983 25.3367 32.4983 16.5C32.4983 7.66333 25.335 0.5 16.4983 0.5ZM23.0066 13.6067C23.0133 13.7433 23.015 13.88 23.015 14.0133C23.015 18.18 19.8466 22.9817 14.05 22.9817C12.3371 22.9845 10.6599 22.4926 9.21996 21.565C9.46496 21.595 9.71662 21.6067 9.97162 21.6067C11.4483 21.6067 12.8066 21.105 13.885 20.2583C13.2278 20.2454 12.5911 20.0278 12.0635 19.6359C11.5359 19.2439 11.1437 18.6971 10.9416 18.0717C11.4136 18.1614 11.8997 18.1426 12.3633 18.0167C11.65 17.8724 11.0086 17.486 10.5478 16.9228C10.087 16.3596 9.83514 15.6544 9.83496 14.9267V14.8883C10.26 15.1233 10.7466 15.2667 11.2633 15.2833C10.5946 14.8382 10.1213 14.1545 9.94003 13.3719C9.7588 12.5893 9.88338 11.7671 10.2883 11.0733C11.0799 12.0467 12.0671 12.8429 13.1859 13.4105C14.3048 13.9781 15.5303 14.3044 16.7833 14.3683C16.624 13.6922 16.6926 12.9823 16.9783 12.3492C17.2641 11.716 17.751 11.195 18.3634 10.8671C18.9758 10.5392 19.6794 10.4229 20.3648 10.5361C21.0501 10.6494 21.6789 10.9859 22.1533 11.4933C22.8586 11.3538 23.5349 11.0951 24.1533 10.7283C23.9182 11.4586 23.4261 12.0786 22.7683 12.4733C23.393 12.3981 24.0031 12.2301 24.5783 11.975C24.1558 12.6082 23.6235 13.1607 23.0066 13.6067Z" fill="url(#paint0_linear_230_700)"/>
<defs>
<linearGradient id="paint0_linear_230_700" x1="32.4983" y1="0.499996" x2="-6.04866" y2="10.492" gradientUnits="userSpaceOnUse">
<stop stop-color="#0881E0"/>
<stop offset="1" stop-color="#05E8BA"/>
</linearGradient>
</defs>
</svg>
