<svg width="32" height="33" viewBox="0 0 32 33" fill="none" xmlns="http://www.w3.org/2000/svg">
<path d="M27.3787 4.81621C24.4141 1.69465 20.3161 0 16.1307 0C7.23714 0 0.0872486 7.40268 0.174372 16.4108C0.174372 19.2648 0.95911 22.0298 2.26709 24.527L0 33L8.45774 30.7703C10.812 32.1082 13.4277 32.7325 16.0436 32.7325C24.8501 32.7325 32 25.3297 32 16.3218C32 11.9514 30.3433 7.84865 27.3788 4.81621H27.3787ZM16.1307 29.9677C13.7765 29.9677 11.4223 29.3435 9.41685 28.0948L8.89374 27.8272L3.83657 29.165L5.14442 24.0813L4.79568 23.5461C0.95911 17.2137 2.79021 8.82971 9.06811 4.90533C15.346 0.981065 23.455 2.85408 27.2916 9.27569C31.128 15.6973 29.2969 23.9919 23.0191 27.9163C21.0135 29.2541 18.5722 29.9676 16.1307 29.9676V29.9677ZM23.8038 20.0678L22.8446 19.6218C22.8446 19.6218 21.4497 18.9975 20.5777 18.5515C20.4904 18.5515 20.4033 18.4623 20.3161 18.4623C20.0544 18.4623 19.8801 18.5515 19.7057 18.6407C19.7057 18.6407 19.6186 18.7299 18.3978 20.1569C18.3106 20.3353 18.1362 20.4245 17.9618 20.4245H17.8746C17.7875 20.4245 17.6131 20.3353 17.5259 20.2462L17.0899 20.0678C16.1307 19.6218 15.2589 19.0866 14.5613 18.3731C14.3869 18.1948 14.1253 18.0164 13.9509 17.838C13.3405 17.2137 12.7302 16.5001 12.2943 15.6974L12.2071 15.5191C12.1199 15.4298 12.1199 15.3407 12.0327 15.1623C12.0327 14.984 12.0327 14.8056 12.1199 14.7164C12.1199 14.7164 12.4687 14.2704 12.7302 14.0029C12.9047 13.8244 12.9918 13.5569 13.1662 13.3786C13.3405 13.111 13.4278 12.7542 13.3405 12.4866C13.2534 12.0406 12.2071 9.63254 11.9456 9.09745C11.7711 8.82984 11.5968 8.74072 11.3352 8.65148H10.3761C10.2016 8.65148 10.0273 8.74072 9.85285 8.74072L9.7656 8.82984C9.59123 8.91909 9.41685 9.09745 9.24248 9.18657C9.06811 9.36506 8.98086 9.5433 8.80649 9.72179C8.19612 10.5245 7.84738 11.5056 7.84738 12.4866C7.84738 13.2001 8.02175 13.9137 8.28337 14.538L8.37062 14.8056C9.15536 16.5001 10.2016 18.0164 11.5968 19.3542L11.9456 19.7109C12.2071 19.9785 12.4687 20.1569 12.6431 20.4244C14.4741 22.0299 16.5667 23.1893 18.921 23.8137C19.1826 23.9028 19.5313 23.9028 19.7929 23.992H20.6648C21.1008 23.992 21.6239 23.8137 21.9728 23.6353C22.2343 23.457 22.4087 23.457 22.583 23.2786L22.7575 23.1001C22.9319 22.9217 23.1063 22.8326 23.2806 22.6543C23.455 22.4759 23.6294 22.2975 23.7166 22.119C23.891 21.7623 23.9781 21.3163 24.0654 20.8705V20.2462C24.0654 20.2462 23.9781 20.1569 23.8038 20.0678Z" fill="white"/>
</svg>
